<?xml version="1.0" encoding="UTF-8"?>
<svg width="40px" height="40px" viewBox="0 0 40 40" version="1.1" xmlns="http://www.w3.org/2000/svg" xmlns:xlink="http://www.w3.org/1999/xlink">
    <title>人员</title>
    <g id="人员" stroke="none" stroke-width="1" fill="none" fill-rule="evenodd">
        <g id="人员分布" fill="#000000" fill-rule="nonzero">
            <rect id="矩形" opacity="0" x="0" y="0" width="40" height="40"></rect>
            <path d="M37.8763636,28.4163636 L37.8763636,36.8181818 C37.8763636,37.5712974 37.2658428,38.1818182 36.5127273,38.1818182 C35.7596117,38.1818182 35.1490909,37.5712974 35.1490909,36.8181818 L35.1490909,28.4163636 C35.1490909,27.3927273 34.3163636,26.5618182 33.2927273,26.5618182 L27.5745455,26.5618182 C26.5503083,26.5618182 25.72,27.3921265 25.72,28.4163636 L25.72,36.8181818 C25.72,37.5712974 25.1094792,38.1818182 24.3563636,38.1818182 C24.3418182,38.1818182 24.3309091,38.1745454 24.3181818,38.1745455 C24.3054546,38.1745455 24.2927273,38.1818182 24.28,38.1818182 C23.5268844,38.1818182 22.9163637,37.5712974 22.9163636,36.8181818 L22.9163636,26.1145455 C22.9133551,23.8299225 21.0609883,21.9791828 18.7763636,21.9781818 L8.9909091,21.9781818 C6.70711276,21.9811813 4.85591546,23.8307526 4.8509091,26.1145455 L4.8509091,36.8181818 C4.85090909,37.5712974 4.2403883,38.1818182 3.48727273,38.1818182 C2.73415717,38.1818182 2.12363637,37.5712974 2.12363637,36.8181818 L2.12363637,26.1145455 C2.12764652,22.3238121 5.20017483,19.2520973 8.9909091,19.2490909 L18.7745455,19.2490909 C21.9672727,19.2490909 24.6363636,21.4490909 25.4,24.4072727 C26.0647543,24.037181 26.8119159,23.8402304 27.5727273,23.8345455 L33.2909091,23.8345455 C35.8215514,23.8355467 37.8733547,25.885723 37.8763636,28.4163636 L37.8763636,28.4163636 Z M6.55818184,9.14545453 C6.55818184,5.10545453 9.84545453,1.81818184 13.8836364,1.81818184 C17.9218182,1.81818184 21.2090909,5.10545457 21.2090909,9.14545453 C21.2090909,13.1854545 17.9218182,16.4709091 13.8836364,16.4709091 C9.84545457,16.4709091 6.55818184,13.1854545 6.55818184,9.14545453 Z M9.28545453,9.14545453 C9.28545453,11.6818182 11.3472727,13.7436364 13.8836364,13.7436364 C16.42,13.7436364 18.4818182,11.68 18.4818182,9.14545453 C18.4818182,6.6090909 16.4181818,4.54545453 13.8836364,4.54545453 C11.3490909,4.54545453 9.28545453,6.6090909 9.28545453,9.14545453 Z M24.4854545,14.9545455 C24.4884613,11.9232464 26.9450646,9.46664311 29.9763636,9.46363637 C33.0079579,9.46664127 35.4650823,11.9229523 35.4690909,14.9545455 C35.4660841,17.9868487 33.0086668,20.444266 29.9763636,20.4472727 C26.9443554,20.4442645 24.487459,17.9865545 24.4854545,14.9545455 L24.4854545,14.9545455 Z M27.2127273,14.9545455 C27.2127273,16.4781818 28.4527273,17.72 29.9763636,17.72 C31.5018182,17.72 32.7418182,16.48 32.7418182,14.9545455 C32.7418182,13.4290909 31.5,12.1909091 29.9763636,12.1909091 C28.4509091,12.1909091 27.2127273,13.4309091 27.2127273,14.9545455 L27.2127273,14.9545455 Z" id="形状"></path>
        </g>
    </g>
</svg>