<?xml version="1.0" encoding="UTF-8"?>
<svg width="40px" height="40px" viewBox="0 0 40 40" version="1.1" xmlns="http://www.w3.org/2000/svg" xmlns:xlink="http://www.w3.org/1999/xlink">
    <title>关闭</title>
    <g id="关闭" stroke="none" stroke-width="1" fill="none" fill-rule="evenodd">
        <g id="close_outline">
            <rect id="矩形" x="0" y="0" width="40" height="40"></rect>
            <path d="M8.21488698,5.85786438 L19.999709,17.642709 L31.785113,5.85786438 C32.4359868,5.20699056 33.4912618,5.20699056 34.1421356,5.85786438 C34.7930094,6.5087382 34.7930094,7.56401316 34.1421356,8.21488698 L22.356709,19.999709 L34.1421356,31.785113 C34.7930094,32.4359868 34.7930094,33.4912618 34.1421356,34.1421356 C33.4912618,34.7930094 32.4359868,34.7930094 31.785113,34.1421356 L19.999709,22.356709 L8.21488698,34.1421356 C7.56401316,34.7930094 6.5087382,34.7930094 5.85786438,34.1421356 C5.20699056,33.4912618 5.20699056,32.4359868 5.85786438,31.785113 L17.642709,19.999709 L5.85786438,8.21488698 C5.20699056,7.56401316 5.20699056,6.5087382 5.85786438,5.85786438 C6.5087382,5.20699056 7.56401316,5.20699056 8.21488698,5.85786438 Z" id="形状结合" fill="#000000"></path>
        </g>
    </g>
</svg>