<?xml version="1.0" encoding="UTF-8"?>
<svg width="40px" height="40px" viewBox="0 0 40 40" version="1.1" xmlns="http://www.w3.org/2000/svg" xmlns:xlink="http://www.w3.org/1999/xlink">
    <title>切换</title>
    <g id="切换" stroke="none" stroke-width="1" fill="none" fill-rule="evenodd" opacity="0.9">
        <g id="trans_outline" transform="translate(20.000000, 20.000000) scale(1, -1) translate(-20.000000, -20.000000) ">
            <rect id="矩形" x="0" y="0" width="40" height="40"></rect>
            <g id="编组-3" transform="translate(1.666667, 5.285955)" fill="#000000" fill-rule="nonzero">
                <path d="M12.5592232,0.488155365 C13.210097,1.13902918 13.210097,2.19430415 12.5592232,2.84517797 L5.69,9.714 L35,9.71404521 C35.9204746,9.71404521 36.6666667,10.4602373 36.6666667,11.3807119 C36.6666667,12.2354383 36.0232663,12.9398905 35.1943685,13.0361657 L35,13.0473785 L1.66666667,13.0473785 C0.746192084,13.0473785 0,12.3011865 0,11.3807119 C0,10.8473078 0.250576172,10.3724288 0.640437251,10.0673664 C0.681068176,10.0151024 0.725795994,9.96455994 0.774110157,9.91624578 L10.2022006,0.488155365 C10.8530744,-0.162718455 11.9083494,-0.162718455 12.5592232,0.488155365 Z M35,19.7140452 C35.9204746,19.7140452 36.6666667,20.4602373 36.6666667,21.3807119 C36.6666667,21.9134744 36.4166929,22.3878525 36.0276356,22.6929558 C35.9860104,22.7458558 35.9410932,22.7966413 35.8925565,22.845178 L26.4644661,32.2732684 C25.8135923,32.9241422 24.7583173,32.9241422 24.1074435,32.2732684 C23.4565697,31.6223946 23.4565697,30.5671196 24.1074435,29.9162458 L30.976,23.047 L1.66666667,23.0473785 C0.746192084,23.0473785 0,22.3011865 0,21.3807119 C0,20.5259855 0.643400317,19.8215333 1.47229812,19.7252581 L1.66666667,19.7140452 L35,19.7140452 Z" id="形状结合"></path>
            </g>
        </g>
    </g>
</svg>