<?xml version="1.0" encoding="UTF-8"?>
<svg width="40px" height="40px" viewBox="0 0 40 40" version="1.1" xmlns="http://www.w3.org/2000/svg" xmlns:xlink="http://www.w3.org/1999/xlink">
    <title>后台配置</title>
    <g id="后台配置" stroke="none" stroke-width="1" fill="none" fill-rule="evenodd" opacity="0.9">
        <g id="set_outline" transform="translate(20.000000, 20.000000) scale(1, -1) translate(-20.000000, -20.000000) ">
            <rect id="矩形" x="0" y="0" width="40" height="40"></rect>
            <path d="M25.6315166,1.66666667 C25.7723482,1.66666667 25.8897079,1.69132482 26.0305395,1.74064111 C28.2134299,2.52970186 30.2320167,3.76260928 31.9924121,5.36538893 C32.3679631,5.710603 32.5087948,6.25308227 32.3679631,6.74624524 C31.8281085,8.57094822 32.039356,10.4942838 32.9312897,12.1217216 C33.8232233,13.7491594 35.3019555,14.9080924 37.062351,15.3272809 C37.5552617,15.4505716 37.9308127,15.845102 38.0247005,16.3629231 C38.2594199,17.5711724 38.3533076,18.8040798 38.3298357,20.0123291 C38.3298357,21.1959202 38.212476,22.4288276 38.0012285,23.6370769 C37.9073408,24.154898 37.5317897,24.5494284 37.062351,24.6727191 C35.3019555,25.0919076 33.8232233,26.2261825 32.9312897,27.8782784 C32.039356,29.5057162 31.8281085,31.4290518 32.3679631,33.2537548 C32.5087948,33.7469177 32.3679631,34.289397 31.9924121,34.6346111 C30.2320167,36.2373907 28.2134299,37.44564 26.0305395,38.2593589 C25.8897079,38.3086752 25.7488763,38.3333333 25.6080446,38.3333333 C25.2559655,38.3333333 24.9273584,38.1853844 24.692639,37.9141448 C23.4720982,36.5086304 21.7821185,35.7442278 19.9982512,35.7442278 C18.2143838,35.7442278 16.5244042,36.5086304 15.3038633,37.9141448 C14.9752562,38.284017 14.4588735,38.4319659 13.9659628,38.2593589 C11.7830725,37.4702981 9.76448568,36.2373907 8.00409025,34.6346111 C7.62853922,34.289397 7.48770758,33.7469177 7.62853922,33.2537548 C8.16839382,31.4290518 7.95714637,29.5303744 7.06521268,27.8782784 C6.17327899,26.2508406 4.69454682,25.0919076 2.93415138,24.6727191 C2.4647126,24.5494284 2.08916157,24.154898 1.99527382,23.6370769 C1.78402636,22.4288276 1.66666667,21.1959202 1.66666667,20.0123291 C1.66666667,18.828738 1.78402636,17.5958305 1.99527382,16.3875813 C2.08916157,15.8697601 2.4647126,15.4752298 2.95762332,15.351939 C4.71801876,14.9327505 6.19675093,13.7984757 7.08868462,12.1463797 C7.98061831,10.4942838 8.19186576,8.59560637 7.65201116,6.77090338 C7.51117952,6.27774042 7.65201116,5.73526115 8.02756219,5.39004707 C9.76448568,3.78726743 11.7830725,2.55436001 13.9894347,1.74064111 C14.4588735,1.56803407 14.9987281,1.71598296 15.3273353,2.08585519 C16.5478761,3.49136965 18.2378557,4.25577225 20.0217231,4.25577225 C21.8055905,4.25577225 23.4955701,3.4667115 24.7161109,2.08585519 C24.9508303,1.81461556 25.2794375,1.66666667 25.6315166,1.66666667 Z M26.0966667,5.37166667 L25.8766195,5.55313732 C24.2029097,6.86111051 22.1575422,7.58910558 20.0217231,7.58910558 C17.870021,7.58910558 15.8176156,6.86556466 14.1565401,5.55908699 L13.9333333,5.375 L13.3974821,5.64423689 C12.6475277,6.03837243 11.9333469,6.49726307 11.260635,7.01769697 L11.14,7.11333333 L11.1640678,7.24488347 C11.4745781,9.30714805 11.1571251,11.4019789 10.2433036,13.2964213 L10.0218497,13.7299371 C8.98237926,15.6553099 7.38543338,17.1398951 5.47502864,18.0026516 L5.10666667,18.1566667 L5.10143408,18.2114347 C5.05670773,18.6236055 5.0265347,19.0299324 5.01138894,19.4261405 L5,20.0123291 C5,20.5898599 5.03434455,21.1949672 5.10064183,21.8087744 L5.11,21.8833333 L5.42553171,22.0168427 C7.20871598,22.8223803 8.7155177,24.1642592 9.76451156,25.8897826 L9.99837772,26.294721 C11.0810985,28.3002048 11.4749915,30.5588744 11.1455272,32.7628115 L11.12,32.9033333 L11.2412154,33.0009416 C11.9209464,33.5227893 12.6344661,33.9793352 13.3719592,34.3654777 L13.9066667,34.63 L14.1213604,34.4542421 C15.6746591,33.2287073 17.5552852,32.5172996 19.5387942,32.4219226 L19.9982512,32.4108944 C22.1499532,32.4108944 24.2023587,33.1344353 25.8769229,34.4562966 L26.0783333,34.6233333 L26.6240358,34.3534285 C27.377479,33.9595595 28.0924836,33.5049646 28.7635752,32.9924397 L28.8766667,32.9016667 L28.8554078,32.7749266 C28.5446058,30.7035181 28.8633693,28.5936473 29.7767941,26.7222281 L29.9981246,26.294721 C31.037595,24.3693483 32.6345409,22.884763 34.5271177,22.0265771 L34.8866667,21.8733333 L34.8951085,21.8090799 C34.9398751,21.3927656 34.9701286,20.9781517 34.9854353,20.5653695 L34.9971311,19.9475866 C35.004997,19.5426787 34.9967047,19.1405245 34.9717219,18.7408164 L34.9183333,18.13 L34.571081,17.9833602 C32.7882553,17.1784817 31.2829775,15.8394045 30.2404606,14.1257879 L30.0081787,13.723762 C28.9179094,11.7344375 28.521011,9.45639656 28.8505317,7.24213817 L28.875,7.095 L28.7552869,6.9990584 C28.075556,6.47721071 27.3620362,6.02066477 26.6245431,5.6345223 L26.0966667,5.37166667 Z M20,13.3333333 C23.6634718,13.3333333 26.6666667,16.3102725 26.6666667,20 C26.6666667,23.6897275 23.6634718,26.6666667 20,26.6666667 C16.3365282,26.6666667 13.3333333,23.6897275 13.3333333,20 C13.3333333,16.3102725 16.315229,13.3333333 20,13.3333333 Z M20,16.6666667 C18.1540816,16.6666667 16.6666667,18.1533175 16.6666667,20 C16.6666667,21.8376957 18.1663763,23.3333333 20,23.3333333 C21.8336237,23.3333333 23.3333333,21.8376957 23.3333333,20 C23.3333333,18.1623043 21.8336237,16.6666667 20,16.6666667 Z" id="形状结合" fill="#000000" fill-rule="nonzero"></path>
        </g>
    </g>
</svg>