<?xml version="1.0" encoding="UTF-8"?>
<svg width="40px" height="40px" viewBox="0 0 40 40" version="1.1" xmlns="http://www.w3.org/2000/svg" xmlns:xlink="http://www.w3.org/1999/xlink">
    <title>展开</title>
    <g id="展开" stroke="none" stroke-width="1" fill="none" fill-rule="evenodd">
        <g id="cirle-_outline备份">
            <rect id="矩形" x="0" y="0" width="40" height="40"></rect>
            <g id="添加" transform="translate(1.666667, 1.666667)" fill="#000000" fill-rule="nonzero">
                <path d="M18.3333333,0 C28.4585537,0 36.6666667,8.20811292 36.6666667,18.3333333 C36.6666667,28.4585537 28.4585537,36.6666667 18.3333333,36.6666667 C8.20811292,36.6666667 0,28.4585537 0,18.3333333 C0,8.20811292 8.20811292,0 18.3333333,0 Z M18.3333333,3.33333333 C10.0490621,3.33333333 3.33333333,10.0490621 3.33333333,18.3333333 C3.33333333,26.6176046 10.0490621,33.3333333 18.3333333,33.3333333 C26.6176046,33.3333333 33.3333333,26.6176046 33.3333333,18.3333333 C33.3333333,10.0490621 26.6176046,3.33333333 18.3333333,3.33333333 Z M25.0000134,16.6666571 C25.920488,16.6666571 26.66668,17.4128491 26.66668,18.3333237 C26.66668,19.2537983 25.920488,19.9999904 25.0000134,19.9999904 L11.6666533,19.9999904 C10.7461787,19.9999904 9.99998663,19.2537983 9.99998663,18.3333237 C9.99998663,17.4128491 10.7461787,16.6666571 11.6666533,16.6666571 L25.0000134,16.6666571 Z" id="形状结合"></path>
            </g>
        </g>
    </g>
</svg>