<?xml version="1.0" encoding="UTF-8"?>
<svg width="40px" height="40px" viewBox="0 0 40 40" version="1.1" xmlns="http://www.w3.org/2000/svg" xmlns:xlink="http://www.w3.org/1999/xlink">
    <title>摄像</title>
    <g id="摄像" stroke="none" stroke-width="1" fill="none" fill-rule="evenodd">
        <g id="ic_摄像头" fill-rule="nonzero">
            <rect id="矩形" fill="#FFFFFF" opacity="0" x="0" y="0" width="40" height="40"></rect>
            <path d="M26.8964844,34.5097656 C27.7019531,34.5097656 28.3546875,35.1628906 28.3546875,35.9679687 C28.3546875,36.7730469 27.7019531,37.4261719 26.896875,37.4261719 L13.18125,37.4261719 C12.3757813,37.4261719 11.7230469,36.7730469 11.7230469,35.9679687 C11.7230469,35.1628906 12.3761719,34.5097656 13.18125,34.5097656 L26.8964844,34.5097656 Z M20.0390625,2.42617187 C28.625,2.42617187 35.6101563,9.4109375 35.6101563,17.9972656 C35.6101563,26.5835937 28.625,33.5679687 20.0390625,33.5679687 C11.453125,33.5679687 4.46796875,26.5832031 4.46796875,17.996875 C4.46796875,9.41054687 11.453125,2.42617187 20.0390625,2.42617187 Z M20.0390625,5.34257812 C13.0613281,5.34257812 7.38476562,11.0191406 7.38476562,17.996875 C7.38476562,24.9746094 13.0613281,30.6515625 20.0390625,30.6515625 C27.0167969,30.6515625 32.6933594,24.975 32.6933594,17.9972656 C32.6933594,11.0195312 27.0167969,5.34257812 20.0390625,5.34257812 Z M20.0390625,11.0445312 C23.8726563,11.0445312 26.9910156,14.1632812 26.9910156,17.9972656 C26.9910156,21.8300781 23.8726563,24.9492187 20.0390625,24.9492187 C16.2054688,24.9492187 13.0871094,21.8304687 13.0871094,17.9972656 C13.0871094,14.1632812 16.2054688,11.0445312 20.0390625,11.0445312 Z M20.0390625,13.9609375 C17.8136719,13.9609375 16.0039063,15.771875 16.0039063,17.996875 C16.0039063,20.221875 17.8140625,22.0320312 20.0390625,22.0320312 C22.2640625,22.0320312 24.0742188,20.221875 24.0742188,17.996875 C24.0742188,15.771875 22.2644531,13.9609375 20.0390625,13.9609375 Z" id="形状结合" fill="#000000"></path>
        </g>
    </g>
</svg>