<?xml version="1.0" encoding="UTF-8"?>
<svg width="40px" height="40px" viewBox="0 0 40 40" version="1.1" xmlns="http://www.w3.org/2000/svg" xmlns:xlink="http://www.w3.org/1999/xlink">
    <title>收起</title>
    <g id="收起" stroke="none" stroke-width="1" fill="none" fill-rule="evenodd">
        <g id="cirle+_outline">
            <rect id="矩形" x="0" y="0" width="40" height="40"></rect>
            <g id="添加" transform="translate(1.666667, 1.666667)" fill="#000000" fill-rule="nonzero">
                <path d="M18.3333333,0 C28.4585537,0 36.6666667,8.20811292 36.6666667,18.3333333 C36.6666667,28.4585537 28.4585537,36.6666667 18.3333333,36.6666667 C8.20811292,36.6666667 0,28.4585537 0,18.3333333 C0,8.20811292 8.20811292,0 18.3333333,0 Z M18.3333333,3.33333333 C10.0490621,3.33333333 3.33333333,10.0490621 3.33333333,18.3333333 C3.33333333,26.6176046 10.0490621,33.3333333 18.3333333,33.3333333 C26.6176046,33.3333333 33.3333333,26.6176046 33.3333333,18.3333333 C33.3333333,10.0490621 26.6176046,3.33333333 18.3333333,3.33333333 Z M18.3333333,9.9999904 C19.2538077,9.9999904 19.9999997,10.7461823 19.9999997,11.6666567 L19.9999997,16.6666708 L25.0000137,16.6666708 C25.9204881,16.6666708 26.66668,17.4128627 26.66668,18.3333371 C26.66668,19.2538115 25.9204881,20.0000034 25.0000137,20.0000034 L19.9999997,20.0000034 L19.9999997,25.0000175 C19.9999997,25.9204919 19.2538077,26.6666838 18.3333333,26.6666838 C17.4128589,26.6666838 16.666667,25.9204919 16.666667,25.0000175 L16.666667,20.0000034 L11.666653,20.0000034 C10.7461786,20.0000034 9.99998663,19.2538115 9.99998663,18.3333371 C9.99998663,17.4128627 10.7461786,16.6666708 11.666653,16.6666708 L16.666667,16.6666708 L16.666667,11.6666567 C16.666667,10.7461823 17.4128589,9.9999904 18.3333333,9.9999904 Z" id="形状结合"></path>
            </g>
        </g>
    </g>
</svg>