<?xml version="1.0" encoding="UTF-8"?>
<svg width="123px" height="72px" viewBox="0 0 123 72" version="1.1" xmlns="http://www.w3.org/2000/svg" xmlns:xlink="http://www.w3.org/1999/xlink">
    <title>暂无数据-暗</title>
    <g id="暂无数据-暗" stroke="none" stroke-width="1" fill="none" fill-rule="evenodd">
        <g id="zanwuneirong" fill-rule="nonzero">
            <path d="M0,21.7384615 L31.1670469,0.566861538 C31.7108974,0.197404883 32.351677,0 33.0073795,0 L90.2784308,0 C90.9389743,0 91.5842722,0.200230884 92.1305692,0.574753846 L123,21.7384615 L123,68.6769231 C123,70.5122308 121.524961,72 119.705357,72 L3.29464286,72 C1.47503906,72 0,70.5122308 0,68.6769231 L0,21.7384615 Z" id="路径" fill="#0F3A5E"></path>
            <path d="M0,21.7384615 L38.868,21.7384615 C40.6876038,21.7384615 42.1626429,23.2262308 42.1626429,25.0615385 L42.1626429,31.248 C42.1626429,33.0831692 43.6376819,34.5710769 45.4572857,34.5710769 L77.4614464,34.5710769 C79.2810502,34.5710769 80.7560893,33.0831692 80.7560893,31.248 L80.7560893,25.0615385 C80.7560893,23.2262308 82.2311283,21.7384615 84.0507321,21.7384615 L123,21.7384615 L123,70.8923077 C123,71.5040693 122.508313,72 121.901786,72 L1.09821429,72 C0.491687284,72 0,71.5040693 0,70.8923077 L0,21.7384615 Z" id="路径" fill="#134D7D"></path>
        </g>
    </g>
</svg>