<?xml version="1.0" encoding="UTF-8"?>
<svg width="40px" height="40px" viewBox="0 0 40 40" version="1.1" xmlns="http://www.w3.org/2000/svg" xmlns:xlink="http://www.w3.org/1999/xlink">
    <title>睁眼</title>
    <g id="睁眼" stroke="none" stroke-width="1" fill="none" fill-rule="evenodd">
        <g id="niming_outline备份-2">
            <rect id="矩形" x="0" y="0" width="40" height="40"></rect>
            <path d="M19.8772803,8.66666667 C27.4408424,8.66666667 33.524734,12.2620443 38.1289549,19.4527995 C34.5725683,27.4440938 28.4955203,31.3942285 19.8978108,31.3032038 C11.3001013,31.212179 5.22305328,27.2620443 1.66666667,19.4527995 C6.24351357,12.2620443 12.3137181,8.66666667 19.8772803,8.66666667 Z M19.8772803,12 C14.2474652,12 9.66712447,14.3206341 5.92936613,19.1683052 L5.52395491,19.7066667 L5.68957648,20.0034469 C8.66462693,25.1722072 13.1142253,27.7511855 19.3758883,27.9579629 L19.9330991,27.9700573 C26.4678473,28.0392412 31.0667115,25.4816218 34.1218421,20.0243634 L34.2806216,19.73 L34.2352353,19.6679218 C30.531422,14.647749 26.0002282,12.1628434 20.437046,12.0077508 L19.8772803,12 Z M20,15 C20.147052,15 20.2926213,15.0063482 20.4364488,15.0187854 C20.1583392,15.5043548 20,16.0670197 20,16.6666667 C20,18.5076158 21.4923842,20 23.3333333,20 C23.9326646,20 24.4950526,19.8418275 24.9810307,19.5649495 C24.9936518,19.7073787 25,19.852948 25,20 C25,22.7614237 22.7614237,25 20,25 C17.2385763,25 15,22.7614237 15,20 C15,17.2385763 17.2385763,15 20,15 Z" id="形状结合" fill="#4A5765" fill-rule="nonzero"></path>
        </g>
    </g>
</svg>