<?xml version="1.0" encoding="UTF-8"?>
<svg width="40px" height="40px" viewBox="0 0 40 40" version="1.1" xmlns="http://www.w3.org/2000/svg" xmlns:xlink="http://www.w3.org/1999/xlink">
    <title>编辑</title>
    <g id="编辑" stroke="none" stroke-width="1" fill="#BABABA" fill-rule="evenodd">
        <g id="edit-outlined" fill="#BABABA" fill-rule="nonzero">
            <rect id="矩形" opacity="0" x="0" y="0" width="40" height="40"></rect>
            <path d="M10.0664062,29.375 C10.1445312,29.375 10.2226562,29.3671875 10.3007812,29.3554688 L16.8710937,28.203125 C16.9492187,28.1875 17.0234375,28.1523438 17.078125,28.09375 L33.6367187,11.5351563 C33.7890625,11.3828125 33.7890625,11.1367188 33.6367187,10.984375 L27.1445312,4.48828125 C27.0703125,4.4140625 26.9726562,4.375 26.8671875,4.375 C26.7617187,4.375 26.6640625,4.4140625 26.5898437,4.48828125 L10.03125,21.046875 C9.97265625,21.1054688 9.9375,21.1757812 9.921875,21.2539062 L8.76953125,27.8242187 C8.6953125,28.2578125 8.828125,28.6796875 9.13671875,28.9882812 C9.39453125,29.2382812 9.71875,29.375 10.0664062,29.375 L10.0664062,29.375 Z M12.6992187,22.5625 L26.8671875,8.3984375 L29.7304687,11.2617188 L15.5625,25.4257813 L12.0898437,26.0390625 L12.6992187,22.5625 L12.6992187,22.5625 Z M34.375,32.65625 L5.625,32.65625 C4.93359375,32.65625 4.375,33.2148438 4.375,33.90625 L4.375,35.3125 C4.375,35.484375 4.515625,35.625 4.6875,35.625 L35.3125,35.625 C35.484375,35.625 35.625,35.484375 35.625,35.3125 L35.625,33.90625 C35.625,33.2148438 35.0664062,32.65625 34.375,32.65625 Z" id="形状"></path>
        </g>
    </g>
</svg>