<?xml version="1.0" encoding="UTF-8"?>
<svg width="40px" height="40px" viewBox="0 0 40 40" version="1.1" xmlns="http://www.w3.org/2000/svg" xmlns:xlink="http://www.w3.org/1999/xlink">
    <title>账号设置</title>
    <g id="账号设置" stroke="none" stroke-width="1" fill="none" fill-rule="evenodd">
        <g id="图标" fill="#000000">
            <rect id="矩形" fill-rule="nonzero" opacity="0" x="0" y="0" width="40" height="40"></rect>
            <path d="M36.125,24.4414062 L33.5664063,22.2539062 C33.6875,21.5117187 33.75,20.7539062 33.75,19.9960937 C33.75,19.2382812 33.6875,18.4804687 33.5664063,17.7382812 L36.125,15.5507812 C36.5195313,15.2148437 36.6640625,14.6679687 36.4882813,14.1757812 L36.453125,14.0742187 C35.7460938,12.1015625 34.6992188,10.2890625 33.3398438,8.6875 L33.2695313,8.60546875 C32.9335938,8.2109375 32.390625,8.0625 31.8984375,8.234375 L28.7226563,9.36328125 C27.5507813,8.40234375 26.2421875,7.64453125 24.828125,7.11328125 L24.2148438,3.79296875 C24.1210938,3.28125 23.71875,2.8828125 23.2070313,2.7890625 L23.1015625,2.76953125 C21.0664063,2.40234375 18.9257813,2.40234375 16.890625,2.76953125 L16.7851563,2.7890625 C16.2734375,2.8828125 15.8710938,3.28125 15.7773438,3.79296875 L15.1601563,7.12890625 C13.7578125,7.66015625 12.4570313,8.4140625 11.2929688,9.37109375 L8.09375,8.234375 C7.60546875,8.0625 7.05859375,8.20703125 6.72265625,8.60546875 L6.65234375,8.6875 C5.29296875,10.2929687 4.24609375,12.1054687 3.5390625,14.0742187 L3.50390625,14.1757812 C3.328125,14.6640625 3.47265625,15.2109375 3.8671875,15.5507812 L6.45703125,17.7617187 C6.3359375,18.4960937 6.27734375,19.2460937 6.27734375,19.9921875 C6.27734375,20.7421875 6.3359375,21.4921875 6.45703125,22.2226562 L3.8671875,24.4335937 C3.47265625,24.7695312 3.328125,25.3164062 3.50390625,25.8085937 L3.5390625,25.9101562 C4.24609375,27.8789062 5.29296875,29.6953125 6.65234375,31.296875 L6.72265625,31.3789062 C7.05859375,31.7734375 7.6015625,31.921875 8.09375,31.75 L11.2929688,30.6132812 C12.4570313,31.5703125 13.7578125,32.328125 15.1601563,32.8554687 L15.7773438,36.1914062 C15.8710938,36.703125 16.2734375,37.1015625 16.7851563,37.1953125 L16.890625,37.2148437 C17.9101563,37.3984375 18.953125,37.4921875 19.9960938,37.4921875 C21.0390625,37.4921875 22.0859375,37.3984375 23.1015625,37.2148437 L23.2070313,37.1953125 C23.71875,37.1015625 24.1210938,36.703125 24.2148438,36.1914062 L24.828125,32.8710937 C26.2421875,32.3398437 27.5507813,31.5859375 28.7226563,30.6210937 L31.8984375,31.75 C32.3867188,31.921875 32.9335938,31.7773437 33.2695313,31.3789062 L33.3398438,31.296875 C34.6992188,29.6914062 35.7460938,27.8789062 36.453125,25.9101562 L36.4882813,25.8085937 C36.6640625,25.328125 36.5195313,24.78125 36.125,24.4414062 L36.125,24.4414062 Z M30.7929688,18.1992187 C30.890625,18.7890625 30.9414063,19.3945312 30.9414063,20 C30.9414063,20.6054687 30.890625,21.2109375 30.7929688,21.8007812 L30.5351563,23.3671875 L33.453125,25.8632812 C33.0117188,26.8828125 32.453125,27.84375 31.7890625,28.7382812 L28.1640625,27.453125 L26.9375,28.4609375 C26.0039063,29.2265625 24.9648438,29.828125 23.8398438,30.25 L22.3515625,30.8085937 L21.6523438,34.5976562 C20.5546875,34.7226562 19.4335938,34.7226562 18.3320313,34.5976562 L17.6328125,30.8007812 L16.15625,30.234375 C15.0429688,29.8125 14.0078125,29.2109375 13.0820313,28.4492187 L11.8554688,27.4375 L8.20703125,28.734375 C7.54296875,27.8398437 6.98828125,26.875 6.54296875,25.859375 L9.4921875,23.3398437 L9.23828125,21.7773437 C9.14453125,21.1953125 9.09375,20.59375 9.09375,20 C9.09375,19.4023437 9.140625,18.8046875 9.23828125,18.2226562 L9.4921875,16.6601562 L6.54296875,14.140625 C6.984375,13.1210937 7.54296875,12.1601562 8.20703125,11.265625 L11.8554688,12.5625 L13.0820313,11.5507812 C14.0078125,10.7890625 15.0429688,10.1875 16.15625,9.765625 L17.6367188,9.20703125 L18.3359375,5.41015625 C19.4335938,5.28515625 20.5546875,5.28515625 21.65625,5.41015625 L22.3554688,9.19921875 L23.84375,9.7578125 C24.9648438,10.1796875 26.0078125,10.78125 26.9414063,11.546875 L28.1679688,12.5546875 L31.7929688,11.2695312 C32.4570313,12.1640625 33.0117188,13.1289062 33.4570313,14.1445312 L30.5390625,16.640625 L30.7929688,18.1992187 Z M20,12.734375 C16.203125,12.734375 13.125,15.8125 13.125,19.609375 C13.125,23.40625 16.203125,26.484375 20,26.484375 C23.796875,26.484375 26.875,23.40625 26.875,19.609375 C26.875,15.8125 23.796875,12.734375 20,12.734375 Z M23.09375,22.703125 C22.265625,23.5273437 21.1679688,23.984375 20,23.984375 C18.8320313,23.984375 17.734375,23.5273437 16.90625,22.703125 C16.0820313,21.875 15.625,20.7773437 15.625,19.609375 C15.625,18.4414062 16.0820313,17.34375 16.90625,16.515625 C17.734375,15.6875 18.8320313,15.234375 20,15.234375 C21.1679688,15.234375 22.265625,15.6875 23.09375,16.515625 C23.9179688,17.34375 24.375,18.4414062 24.375,19.609375 C24.375,20.7773437 23.9179688,21.875 23.09375,22.703125 Z" id="形状"></path>
        </g>
    </g>
</svg>