<?xml version="1.0" encoding="UTF-8"?>
<svg width="40px" height="40px" viewBox="0 0 40 40" version="1.1" xmlns="http://www.w3.org/2000/svg" xmlns:xlink="http://www.w3.org/1999/xlink">
    <title>返回</title>
    <g id="返回" stroke="none" stroke-width="1" fill="none" fill-rule="evenodd">
        <g fill-rule="nonzero">
            <rect id="矩形" fill="#3BA4BA" opacity="0" x="0" y="0" width="40" height="40"></rect>
            <path d="M22.859375,9.96484375 L9.03125,9.96484375 L13.6601562,5.3359375 C14.3007812,4.6953125 14.3007812,3.66015625 13.6601562,3.0234375 C13.0195313,2.3828125 11.984375,2.3828125 11.3476562,3.0234375 L4.08984375,10.2773438 C3.73828125,10.6289062 3.58984375,11.0976562 3.62109375,11.5546875 C3.5859375,12.0117188 3.73828125,12.4804688 4.08984375,12.8320312 L11.34375,20.0859375 C11.6640625,20.40625 12.0820312,20.5664062 12.5,20.5664062 C12.9179688,20.5664062 13.3359375,20.40625 13.65625,20.0859375 C14.296875,19.4453125 14.296875,18.4101563 13.65625,17.7734375 L9.12109375,13.2382812 L22.6523438,13.2382812 C28.3671875,13.2382812 33.1835938,17.7382812 33.3125,23.453125 C33.4453125,29.3242188 28.7070312,34.1445312 22.8632812,34.1445312 L20.7695312,34.1445312 C20.7460937,34.1445312 20.71875,34.140625 20.6953125,34.140625 L6.65234375,34.140625 C6.625,34.140625 6.6015625,34.1445312 6.578125,34.1445312 C5.796875,34.1796875 5.1640625,34.7578125 5.0390625,35.5117188 L5.0390625,36.0507812 C5.1640625,36.8007812 5.796875,37.3789062 6.5703125,37.4179688 L22.6171875,37.4179688 C30.140625,37.4179688 36.4453125,31.4648437 36.5820312,23.9453125 C36.7226562,16.2617187 30.5117188,9.96484375 22.859375,9.96484375 Z" id="路径" fill="#000000"></path>
        </g>
    </g>
</svg>