<?xml version="1.0" encoding="UTF-8"?>
<svg width="40px" height="40px" viewBox="0 0 40 40" version="1.1" xmlns="http://www.w3.org/2000/svg" xmlns:xlink="http://www.w3.org/1999/xlink">
    <title>退出</title>
    <g id="退出" stroke="none" stroke-width="1" fill="none" fill-rule="evenodd" opacity="0.9">
        <g id="import_outline" transform="translate(20.000000, 20.000000) scale(1, -1) translate(-20.000000, -20.000000) ">
            <rect id="矩形" x="0" y="0" width="40" height="40"></rect>
            <path d="M33.3333333,3.33333333 C35.1742825,3.33333333 36.6666667,4.8257175 36.6666667,6.66666667 L36.6666667,33.3333333 C36.6666667,35.1742825 35.1742825,36.6666667 33.3333333,36.6666667 L6.66666667,36.6666667 C4.8257175,36.6666667 3.33333333,35.1742825 3.33333333,33.3333333 L33.3333333,33.3333333 L33.3333333,6.66666667 L6.66666667,6.66666667 L6.66666667,15 C6.66666667,15.9204746 5.92047458,16.6666667 5,16.6666667 C4.07952542,16.6666667 3.33333333,15.9204746 3.33333333,15 L3.33333333,6.66666667 C3.33333333,4.8257175 4.8257175,3.33333333 6.66666667,3.33333333 L33.3333333,3.33333333 Z M17.845178,17.845178 L22.5592232,22.5592232 C23.210097,23.210097 23.210097,24.265372 22.5592232,24.9162458 L17.845178,29.630291 C17.1943041,30.2811648 16.1390292,30.2811648 15.4881554,29.630291 C14.8372815,28.9794172 14.8372815,27.9241422 15.4881554,27.2732684 L17.3563333,25.4040226 L5,25.4044011 C4.07952542,25.4044011 3.33333333,24.6582091 3.33333333,23.7377345 C3.33333333,22.8172599 4.07952542,22.0710678 5,22.0710678 L17.3573333,22.0710226 L15.4881554,20.2022006 C14.8372815,19.5513268 14.8372815,18.4960518 15.4881554,17.845178 C16.1390292,17.1943041 17.1943041,17.1943041 17.845178,17.845178 Z" id="形状结合" fill="#000000" fill-rule="nonzero"></path>
        </g>
    </g>
</svg>