<?xml version="1.0" encoding="UTF-8"?>
<svg width="40px" height="40px" viewBox="0 0 40 40" version="1.1" xmlns="http://www.w3.org/2000/svg" xmlns:xlink="http://www.w3.org/1999/xlink">
    <title>部门</title>
    <g id="部门" stroke="none" stroke-width="1" fill="none" fill-rule="evenodd">
        <g fill="#000000" fill-rule="nonzero">
            <rect id="矩形" opacity="0" x="0" y="0" width="40" height="40"></rect>
            <path d="M7.5,15 L5,15 C3.61928813,15 2.5,13.8807119 2.5,12.5 L2.5,5 C2.5,3.61928813 3.61928813,2.5 5,2.5 L12.5,2.5 C13.8807119,2.5 15,3.61928813 15,5 L15,12.5 C15,13.8807119 13.8807119,15 12.5,15 L10,15 L10,15 L10,25 L12.5,25 C13.8807119,25 15,26.1192881 15,27.5 L15,30 L15,30 L27.5,30 C28.8807119,30 30,28.8807119 30,27.5 L30,20 L30,20 L27.5,20 C26.1192881,20 25,18.8807119 25,17.5 L25,10 C25,8.61928813 26.1192881,7.5 27.5,7.5 L35,7.5 C36.3807119,7.5 37.5,8.61928813 37.5,10 L37.5,17.5 C37.5,18.8807119 36.3807119,20 35,20 L32.5,20 L32.5,20 L32.5,30 C32.5,31.3807119 31.3807119,32.5 30,32.5 L15,32.5 L15,32.5 L15,35 C15,36.3807119 13.8807119,37.5 12.5,37.5 L5,37.5 C3.61928813,37.5 2.5,36.3807119 2.5,35 L2.5,27.5 C2.5,26.1192881 3.61928813,25 5,25 L7.5,25 L7.5,25 L7.5,15 Z M12.5,27.5 L5,27.5 L5,35 L12.5,35 L12.5,27.5 Z M35,10 L27.5,10 L27.5,17.5 L35,17.5 L35,10 Z M12.5,5 L5,5 L5,12.5 L12.5,12.5 L12.5,5 Z" id="形状"></path>
        </g>
    </g>
</svg>