<?xml version="1.0" encoding="UTF-8"?>
<svg width="40px" height="40px" viewBox="0 0 40 40" version="1.1" xmlns="http://www.w3.org/2000/svg" xmlns:xlink="http://www.w3.org/1999/xlink">
    <title>闭眼</title>
    <g id="闭眼" stroke="none" stroke-width="1" fill="none" fill-rule="evenodd">
        <g id="niming_outline">
            <rect id="矩形" x="0" y="0" width="40" height="40"></rect>
            <path d="M36.170041,3.81924026 C36.7719938,4.41889841 36.820015,5.36419352 36.3128897,6.01898185 L36.1745422,6.17625857 L5.97638136,36.4899793 C5.3267517,37.1420949 4.27147866,37.1441101 3.61936305,36.4944805 C3.01741018,35.8948223 2.96938897,34.9495272 3.47651426,34.2947389 L3.61486184,34.1374622 L8.24140036,29.4946407 C5.50763947,27.5329931 3.31606158,24.7412683 1.66666667,21.1194661 C6.24351357,13.9287109 12.3137181,10.3333333 19.8772803,10.3333333 C22.1684667,10.3333333 24.323874,10.6632563 26.3435021,11.3231024 L33.8130226,3.82374147 C34.4626523,3.17162586 35.5179253,3.1696106 36.170041,3.81924026 Z M32.2895135,14.5188396 C34.4463732,16.2078585 36.3928537,18.4080674 38.1289549,21.1194661 C34.5725683,29.1107604 28.4955203,33.0608952 19.8978108,32.9698705 C17.9868669,32.9496391 16.2004447,32.7387663 14.5385441,32.3372519 L17.3928104,29.4722207 C18.032606,29.5513857 18.6934863,29.6020948 19.3758883,29.6246296 L19.9330991,29.6367239 C26.4678473,29.7059079 31.0667115,27.1482885 34.1218421,21.6910301 L34.2806216,21.3966667 L34.2352353,21.3345885 C32.905902,19.5328014 31.4699889,18.0575972 29.9180363,16.8994769 L32.2895135,14.5188396 Z M19.8772803,13.6666667 C14.2474652,13.6666667 9.66712447,15.9873008 5.92936613,20.8349719 L5.52395491,21.3733333 L5.68957648,21.6701136 C7.02836589,23.9960847 8.66575871,25.7976119 10.6325123,27.094523 L23.6309582,14.0440821 C22.6059528,13.8279028 21.5418496,13.7052176 20.437046,13.6744175 L19.8772803,13.6666667 Z" id="形状结合" fill="#4A5765" fill-rule="nonzero"></path>
        </g>
    </g>
</svg>